<?xml version="1.0" standalone="no"?>
<svg xmlns:xlink="http://www.w3.org/1999/xlink" id="wave" style="transform:rotate(180deg); transition: 0.3s" viewBox="0 0 1440 100" version="1.1" xmlns="http://www.w3.org/2000/svg"><defs><linearGradient id="sw-gradient-0" x1="0" x2="0" y1="1" y2="0"><stop stop-color="rgba(255, 249, 234, 1)" offset="0%"/><stop stop-color="rgba(255, 249, 234, 1)" offset="100%"/></linearGradient></defs><path style="transform:translate(0, 0px); opacity:1" fill="url(#sw-gradient-0)" d="M0,30L26.7,35C53.3,40,107,50,160,48.3C213.3,47,267,33,320,38.3C373.3,43,427,67,480,76.7C533.3,87,587,83,640,70C693.3,57,747,33,800,33.3C853.3,33,907,57,960,58.3C1013.3,60,1067,40,1120,30C1173.3,20,1227,20,1280,30C1333.3,40,1387,60,1440,65C1493.3,70,1547,60,1600,55C1653.3,50,1707,50,1760,46.7C1813.3,43,1867,37,1920,28.3C1973.3,20,2027,10,2080,8.3C2133.3,7,2187,13,2240,18.3C2293.3,23,2347,27,2400,23.3C2453.3,20,2507,10,2560,5C2613.3,0,2667,0,2720,8.3C2773.3,17,2827,33,2880,46.7C2933.3,60,2987,70,3040,68.3C3093.3,67,3147,53,3200,55C3253.3,57,3307,73,3360,70C3413.3,67,3467,43,3520,31.7C3573.3,20,3627,20,3680,30C3733.3,40,3787,60,3813,70L3840,80L3840,100L3813.3,100C3786.7,100,3733,100,3680,100C3626.7,100,3573,100,3520,100C3466.7,100,3413,100,3360,100C3306.7,100,3253,100,3200,100C3146.7,100,3093,100,3040,100C2986.7,100,2933,100,2880,100C2826.7,100,2773,100,2720,100C2666.7,100,2613,100,2560,100C2506.7,100,2453,100,2400,100C2346.7,100,2293,100,2240,100C2186.7,100,2133,100,2080,100C2026.7,100,1973,100,1920,100C1866.7,100,1813,100,1760,100C1706.7,100,1653,100,1600,100C1546.7,100,1493,100,1440,100C1386.7,100,1333,100,1280,100C1226.7,100,1173,100,1120,100C1066.7,100,1013,100,960,100C906.7,100,853,100,800,100C746.7,100,693,100,640,100C586.7,100,533,100,480,100C426.7,100,373,100,320,100C266.7,100,213,100,160,100C106.7,100,53,100,27,100L0,100Z"/></svg>